<svg xmlns="http://www.w3.org/2000/svg" viewBox="-4 -24.3 684.1 161.0" role="img" aria-label="Vértice Mármores" xmlns:c2pa="http://c2pa.org/manifest"><metadata><c2pa:manifest>AAAWgmp1bWIAAAAeanVtZGMycGEAEQAQgAAAqgA4m3EDYzJwYQAAABZcanVtYgAAAEdqdW1kYzJtYQARABCAAACqADibcQN1cm46YzJwYTo2NDdkMzIzZS1hZTRlLTQ2YTUtOTU5Mi0wZGNiYWY5NzFhN2QAAAADl2p1bWIAAAApanVtZGMyYXMAEQAQgAAAqgA4m3EDYzJwYS5hc3NlcnRpb25zAAAAALxqdW1iAAAARGp1bWRjYm9yABEAEIAAAKoAOJtxE2MycGEuaW5ncmVkaWVudC52MwAAAAAYYzJzaFODvIjwbCuSw3Ca0UtCbIcAAABwY2JvcqNpZGM6Zm9ybWF0bWltYWdlL3N2Zyt4bWxqaW5zdGFuY2VJRHgseG1wOmlpZDpjYTBhMTc3Mi00MzA1LTRmM2QtOTcxZC0zNjNhYjhiZjU0NDdscmVsYXRpb25zaGlwaHBhcmVudE9mAAAB4mp1bWIAAABBanVtZGNib3IAEQAQgAAAqgA4m3ETYzJwYS5hY3Rpb25zLnYyAAAAABhjMnNodCPXKroUEX4PSuKp8srUAAAAAZljYm9yomdhY3Rpb25zgqJmYWN0aW9ua2MycGEub3BlbmVkanBhcmFtZXRlcnOha2luZ3JlZGllbnRzgaJjdXJseC1zZWxmI2p1bWJmPWMycGEuYXNzZXJ0aW9ucy9jMnBhLmluZ3JlZGllbnQudjNkaGFzaFgghAiv8Az0qNMZtC4qZmgspOWTfT+kFVw0z0A9ch1EZnykZmFjdGlvbngdY29tLmFudGhyb3BpYy5jbGF1ZGUucHJvdmlkZWRqcGFyYW1ldGVyc6F4H2NvbS5hbnRocm9waWMub3JpZ2luLWNvbmZpZGVuY2VndW5rbm93bmtkZXNjcmlwdGlvbnhmQ2xhdWRlIHByb3ZpZGVkIHRoaXMgZmlsZSBhdCB0aGUgcmVxdWVzdCBvZiBhIHVzZXIgYW5kIG1heSBoYXZlIGNyZWF0ZWQgb3IgbW9kaWZpZWQgdGhlIGZpbGUgY29udGVudHMubXNvZnR3YXJlQWdlbnShZG5hbWVmQ2xhdWRlcmFsbEFjdGlvbnNJbmNsdWRlZPUAAADIanVtYgAAAEBqdW1kY2JvcgARABCAAACqADibcRNjMnBhLmhhc2guZGF0YQAAAAAYYzJzaFnEsslsJ3sH8IIr/E8ySSsAAACAY2JvcqVjYWxnZnNoYTI1NmNwYWRNAAAAAAAAAAAAAAAAAGRoYXNoWCDz1EFDYyxu0NjcWyvZAo5fvnQv4VBauZ2ZF6omBfBZGmRuYW1lbmp1bWJmIG1hbmlmZXN0amV4Y2x1c2lvbnOBomVzdGFydBixZmxlbmd0aBkeBAAAAj5qdW1iAAAAJ2p1bWRjMmNsABEAEIAAAKoAOJtxA2MycGEuY2xhaW0udjIAAAACD2Nib3KlY2FsZ2ZzaGEyNTZpc2lnbmF0dXJleE1zZWxmI2p1bWJmPS9jMnBhL3VybjpjMnBhOjY0N2QzMjNlLWFlNGUtNDZhNS05NTkyLTBkY2JhZjk3MWE3ZC9jMnBhLnNpZ25hdHVyZWppbnN0YW5jZUlEeCx4bXA6aWlkOmFhODEyZDVjLWU0NDUtNDg4YS05MTM1LTFmNjY2ZWNiZDMzNXJjcmVhdGVkX2Fzc2VydGlvbnODomN1cmx4LXNlbGYjanVtYmY9YzJwYS5hc3NlcnRpb25zL2MycGEuaW5ncmVkaWVudC52M2RoYXNoWCCECK/wDPSo0xm0LipmaCyk5ZN9P6QVXDTPQD1yHURmfKJjdXJseCpzZWxmI2p1bWJmPWMycGEuYXNzZXJ0aW9ucy9jMnBhLmFjdGlvbnMudjJkaGFzaFggTFNK0IhvzXU8ckipwch4t2kkQNfIpqC3Y3kINb1DNgWiY3VybHgpc2VsZiNqdW1iZj1jMnBhLmFzc2VydGlvbnMvYzJwYS5oYXNoLmRhdGFkaGFzaFgg1wl4HrLC41Jjdoxg6RcCkTkpR4nXCZOP13WvRRZ5pHt0Y2xhaW1fZ2VuZXJhdG9yX2luZm+jZG5hbWVvQW50aHJvcGljIEZpbGVzZ3ZlcnNpb25lMS4wLjBrc3BlY1ZlcnNpb25lMi40LjAAABA4anVtYgAAAChqdW1kYzJjcwARABCAAACqADibcQNjMnBhLnNpZ25hdHVyZQAAABAIY2JvctKEWQISogEmGCFZAgowggIGMIIBjaADAgECAhRA5aAK7sI50L64g/oGQgU9Z1UTADAKBggqhkjOPQQDAzBJMRcwFQYDVQQKEw5BbnRocm9waWMsIFBCQzEuMCwGA1UEAxMlQW50aHJvcGljIENvbnRlbnQgQ3JlZGVudGlhbHMgUm9vdCBDQTAeFw0yNjA4MDcxODQzNTZaFw0yODA4MDYxOTQzNTZaMEQxFzAVBgNVBAoTDkFudGhyb3BpYywgUEJDMSkwJwYDVQQDEyBBbnRocm9waWMgQ2xhdWRlIENvbnRlbnQgU2lnbmluZzBZMBMGByqGSM49AgEGCCqGSM49AwEHA0IABJh6CmvLUBgFFNU0vUKlOVtE6djd17L5SuwX0LemFisBM3dkd/3cyjxFA3Qo5S46fX0/ihY0VZ7mfb9KF703t5OjWDBWMA4GA1UdDwEB/wQEAwIHgDAVBgNVHSUEDjAMBgorBgEEAYPoXgIBMAwGA1UdEwEB/wQCMAAwHwYDVR0jBBgwFoAUzlHiBIFOZFsj+OPEz5o+nMHXXMIwCgYIKoZIzj0EAwMDZwAwZAIwMXMdFJ4BetLLVY7ORuE9noqbbAZOZn/aArXyTwFAZfKrPzxF2vPoJNf1+UCdg1XGAjBwX1zd9WGqYkqmL5SFqw1QySjr1zJfpJM9+1rdDwSPLMOPOjKuiXjoU/pUUeG9RwmhY3BhZFkNngAAAAAAAAAAAAAAAAAAAAAAAAAAAAAAAAAAAAAAAAAAAAAAAAAAAAAAAAAAAAAAAAAAAAAAAAAAAAAAAAAAAAAAAAAAAAAAAAAAAAAAAAAAAAAAAAAAAAAAAAAAAAAAAAAAAAAAAAAAAAAAAAAAAAAAAAAAAAAAAAAAAAAAAAAAAAAAAAAAAAAAAAAAAAAAAAAAAAAAAAAAAAAAAAAAAAAAAAAAAAAAAAAAAAAAAAAAAAAAAAAAAAAAAAAAAAAAAAAAAAAAAAAAAAAAAAAAAAAAAAAAAAAAAAAAAAAAAAAAAAAAAAAAAAAAAAAAAAAAAAAAAAAAAAAAAAAAAAAAAAAAAAAAAAAAAAAAAAAAAAAAAAAAAAAAAAAAAAAAAAAAAAAAAAAAAAAAAAAAAAAAAAAAAAAAAAAAAAAAAAAAAAAAAAAAAAAAAAAAAAAAAAAAAAAAAAAAAAAAAAAAAAAAAAAAAAAAAAAAAAAAAAAAAAAAAAAAAAAAAAAAAAAAAAAAAAAAAAAAAAAAAAAAAAAAAAAAAAAAAAAAAAAAAAAAAAAAAAAAAAAAAAAAAAAAAAAAAAAAAAAAAAAAAAAAAAAAAAAAAAAAAAAAAAAAAAAAAAAAAAAAAAAAAAAAAAAAAAAAAAAAAAAAAAAAAAAAAAAAAAAAAAAAAAAAAAAAAAAAAAAAAAAAAAAAAAAAAAAAAAAAAAAAAAAAAAAAAAAAAAAAAAAAAAAAAAAAAAAAAAAAAAAAAAAAAAAAAAAAAAAAAAAAAAAAAAAAAAAAAAAAAAAAAAAAAAAAAAAAAAAAAAAAAAAAAAAAAAAAAAAAAAAAAAAAAAAAAAAAAAAAAAAAAAAAAAAAAAAAAAAAAAAAAAAAAAAAAAAAAAAAAAAAAAAAAAAAAAAAAAAAAAAAAAAAAAAAAAAAAAAAAAAAAAAAAAAAAAAAAAAAAAAAAAAAAAAAAAAAAAAAAAAAAAAAAAAAAAAAAAAAAAAAAAAAAAAAAAAAAAAAAAAAAAAAAAAAAAAAAAAAAAAAAAAAAAAAAAAAAAAAAAAAAAAAAAAAAAAAAAAAAAAAAAAAAAAAAAAAAAAAAAAAAAAAAAAAAAAAAAAAAAAAAAAAAAAAAAAAAAAAAAAAAAAAAAAAAAAAAAAAAAAAAAAAAAAAAAAAAAAAAAAAAAAAAAAAAAAAAAAAAAAAAAAAAAAAAAAAAAAAAAAAAAAAAAAAAAAAAAAAAAAAAAAAAAAAAAAAAAAAAAAAAAAAAAAAAAAAAAAAAAAAAAAAAAAAAAAAAAAAAAAAAAAAAAAAAAAAAAAAAAAAAAAAAAAAAAAAAAAAAAAAAAAAAAAAAAAAAAAAAAAAAAAAAAAAAAAAAAAAAAAAAAAAAAAAAAAAAAAAAAAAAAAAAAAAAAAAAAAAAAAAAAAAAAAAAAAAAAAAAAAAAAAAAAAAAAAAAAAAAAAAAAAAAAAAAAAAAAAAAAAAAAAAAAAAAAAAAAAAAAAAAAAAAAAAAAAAAAAAAAAAAAAAAAAAAAAAAAAAAAAAAAAAAAAAAAAAAAAAAAAAAAAAAAAAAAAAAAAAAAAAAAAAAAAAAAAAAAAAAAAAAAAAAAAAAAAAAAAAAAAAAAAAAAAAAAAAAAAAAAAAAAAAAAAAAAAAAAAAAAAAAAAAAAAAAAAAAAAAAAAAAAAAAAAAAAAAAAAAAAAAAAAAAAAAAAAAAAAAAAAAAAAAAAAAAAAAAAAAAAAAAAAAAAAAAAAAAAAAAAAAAAAAAAAAAAAAAAAAAAAAAAAAAAAAAAAAAAAAAAAAAAAAAAAAAAAAAAAAAAAAAAAAAAAAAAAAAAAAAAAAAAAAAAAAAAAAAAAAAAAAAAAAAAAAAAAAAAAAAAAAAAAAAAAAAAAAAAAAAAAAAAAAAAAAAAAAAAAAAAAAAAAAAAAAAAAAAAAAAAAAAAAAAAAAAAAAAAAAAAAAAAAAAAAAAAAAAAAAAAAAAAAAAAAAAAAAAAAAAAAAAAAAAAAAAAAAAAAAAAAAAAAAAAAAAAAAAAAAAAAAAAAAAAAAAAAAAAAAAAAAAAAAAAAAAAAAAAAAAAAAAAAAAAAAAAAAAAAAAAAAAAAAAAAAAAAAAAAAAAAAAAAAAAAAAAAAAAAAAAAAAAAAAAAAAAAAAAAAAAAAAAAAAAAAAAAAAAAAAAAAAAAAAAAAAAAAAAAAAAAAAAAAAAAAAAAAAAAAAAAAAAAAAAAAAAAAAAAAAAAAAAAAAAAAAAAAAAAAAAAAAAAAAAAAAAAAAAAAAAAAAAAAAAAAAAAAAAAAAAAAAAAAAAAAAAAAAAAAAAAAAAAAAAAAAAAAAAAAAAAAAAAAAAAAAAAAAAAAAAAAAAAAAAAAAAAAAAAAAAAAAAAAAAAAAAAAAAAAAAAAAAAAAAAAAAAAAAAAAAAAAAAAAAAAAAAAAAAAAAAAAAAAAAAAAAAAAAAAAAAAAAAAAAAAAAAAAAAAAAAAAAAAAAAAAAAAAAAAAAAAAAAAAAAAAAAAAAAAAAAAAAAAAAAAAAAAAAAAAAAAAAAAAAAAAAAAAAAAAAAAAAAAAAAAAAAAAAAAAAAAAAAAAAAAAAAAAAAAAAAAAAAAAAAAAAAAAAAAAAAAAAAAAAAAAAAAAAAAAAAAAAAAAAAAAAAAAAAAAAAAAAAAAAAAAAAAAAAAAAAAAAAAAAAAAAAAAAAAAAAAAAAAAAAAAAAAAAAAAAAAAAAAAAAAAAAAAAAAAAAAAAAAAAAAAAAAAAAAAAAAAAAAAAAAAAAAAAAAAAAAAAAAAAAAAAAAAAAAAAAAAAAAAAAAAAAAAAAAAAAAAAAAAAAAAAAAAAAAAAAAAAAAAAAAAAAAAAAAAAAAAAAAAAAAAAAAAAAAAAAAAAAAAAAAAAAAAAAAAAAAAAAAAAAAAAAAAAAAAAAAAAAAAAAAAAAAAAAAAAAAAAAAAAAAAAAAAAAAAAAAAAAAAAAAAAAAAAAAAAAAAAAAAAAAAAAAAAAAAAAAAAAAAAAAAAAAAAAAAAAAAAAAAAAAAAAAAAAAAAAAAAAAAAAAAAAAAAAAAAAAAAAAAAAAAAAAAAAAAAAAAAAAAAAAAAAAAAAAAAAAAAAAAAAAAAAAAAAAAAAAAAAAAAAAAAAAAAAAAAAAAAAAAAAAAAAAAAAAAAAAAAAAAAAAAAAAAAAAAAAAAAAAAAAAAAAAAAAAAAAAAAAAAAAAAAAAAAAAAAAAAAAAAAAAAAAAAAAAAAAAAAAAAAAAAAAAAAAAAAAAAAAAAAAAAAAAAAAAAAAAAAAAAAAAAAAAAAAAAAAAAAAAAAAAAAAAAAAAAAAAAAAAAAAAAAAAAAAAAAAAAAAAAAAAAAAAAAAAAAAAAAAAAAAAAAAAAAAAAAAAAAAAAAAAAAAAAAAAAAAAAAAAAAAAAAAAAAAAAAAAAAAAAAAAAAAAAAAAAAAAAAAAAAAAAAAAAAAAAAAAAAAAAAAAAAAAAAAAAAAAAAAAAAAAAAAAAAAAAAAAAAAAAAAAAAAAAAAAAAAAAAAAAAAAAAAAAAAAAAAAAAAAAAAAAAAAAAAAAAAAAAAAAAAAAAAAAAAAAAAAAAAAAAAAAAAAAAAAAAAAAAAAAAAAAAAAAAAAAAAAAAAAAAAAAAAAAAAAAAAAAAAAAAAAAAAAAAAAAAAAAAAAAAAAAAAAAAAAAAAAAAAAAAAAAAAAAAAAAAAAAAAAAAAAAAAAAAAAAAAAAAAAAAAAAAAAAAAAAAAAAAAAAAAAAAAAAAAAAAAAAAAAAAAAAAAAAAAAAAAAAAAAAAAAAAAAAAAAAAAAAAAAAAAAAAAAAAAAAAAAAAAAAAAAAAAAAAAAAAAAAAAAAAAAAAAAAAAAAAAAAAAAAAAAAAAAAAAAAAAAAAAAAAAAAAAAAAAAAAAAAAAAAAAAAAAAAAAAAAAAAAAAAAAAAAAAAAAAAAAAAAAAAAAAAAAAAAAAAAAAAAAAAAAAAAAAAAAAAAAAAAAAAAAAAAAAAAAAAAAAAAAAAAAAAAAAAAAAAAAAAAAAAAAAAAAAAAAAAAAAAAAAAAAAAAAAAAAAAAAAAAAAAAAAAAAAAAAAAAAAAAAAAAAAAAAAAAAAAAAAAAAAAAAAAAAAAAAAAAAAAAAAAAAAAAAAAAAAAAAAAAAAAAAAAAAAAAAAAAAAAAAAAAAAAAAAAAAAAAAAAAAAAAAAAAAAAAAAAAAAAAAAAAAAAAAAAAAAAAAAAAAAAAAAAAAAAAAAAAAAAAAAAAAAAAAAAAAAAAAAAAAAAAAAAAAAAAAAAAAAAAAAAAAAAAAAAAAAAAAAAAAAAAAAAAAAAAAAAAAAAAAAAAAAAAAAAAAAAAAAAAAAAAAAAAAAAAAAAAAAAAAAAAAAAAAAAAAAAAAAAAAAAAAAAAAAAAAAAAAAAAAAAAAAAAAAAAAAAAAAAAAAAAAAAAAAAAAAAAAAAAAAAAAAAAAAAAAAAAAAAAAAAAAAAAAAAAAAAAAAAAAAAAAAAAAAAAAAAAAAAAAAAAAAAAAAAAAAAAAAAAAAAAAAAAAAAAAAAAAAAAAAAAAAAAAAAAAAAAAAAAAAAAAAAAAAAAAAAAAAAAAAAAAAAAAAAAAAAAAAAAAAAAAAAAAAAAAAAAAAAAAAAAAAAAAAAAAAAAAAAAAAAAAAAAAAAAAAAAAAAPZYQN657k9t8qtPfqMgXo0QuaFhg/zwVrUjTo5pLscJxYYFmsalYI3ksi0UbrhTetL6QCGk1VxXxVShZoJUrqV3h+M=</c2pa:manifest></metadata><title>Vértice Mármores</title><g transform="translate(-21.86 -39.06) scale(3.1230)"><path fill="#17253B" d="M7.00 9.00 L14.25 9.00 L32.00 55.00Z"/><path fill="#5C7699" d="M14.25 9.00 L21.50 9.00 L36.00 35.68 L32.00 55.00Z"/><path fill="#17253B" d="M50.50 9.00 L53.75 9.00 L32.00 55.00 L36.00 35.68Z"/><path fill="#5C7699" d="M53.75 9.00 L57.00 9.00 L32.00 55.00Z"/></g><g transform="translate(190.15 0)"><path fill="#17253B" d="M2 3.7 6.1 4C8.6 4.2 10.2 6.1 12.3 11.2L36.2 68.4H43.8C45.1 65.1 46.2 61.7 47.6 58.5L68.4 8.7C69.7 5.5 71 4.2 73.1 4L76.3 3.7V0C72.4 0.2 68.6 0.3 64.7 0.3C60.9 0.3 57 0.2 53.2 0V3.7L57.8 4C60.1 4.2 61.5 5.1 61.5 6.6C61.5 8.1 60.5 11.2 58.4 16.5L44.2 51.8L28.5 13.1C26.4 8 26.4 7.7 26.4 5.9C26.4 5 27.6 4.1 29 4L34 3.7V0C28.6 0.2 23.2 0.3 17.8 0.3C12.5 0.3 7.3 0.2 2 0ZM87.7 3.7 91.4 4C95.9 4.4 96.2 5 96.2 13.8V58.6C96.2 62 95.7 63.5 94.2 64.3L91 66.1V68.4C95.1 68.2 99.2 68.1 103.3 68.1C110.8 68.1 118.4 68.4 125.9 68.4C131.4 68.4 134.2 68.4 139.9 68.1L140.4 67.3L141.5 51.5H137.6L135.3 60.9C135.1 61.7 129.8 62.6 125.2 62.6L110.3 62.3V35.6C113.1 35.4 114.8 35.3 117 35.3H123.6C127.4 35.3 129 36.4 129.3 39L129.9 44H133.9C133.7 40.4 133.6 36.8 133.6 33.2C133.6 29.6 133.7 26.1 133.9 22.5H129.9L129.3 28.2C129.1 29.8 127.8 30.3 123.6 30.3H117C113.7 30.3 112.3 30.3 110.3 30.1V6.1L124.8 5.8C130.3 5.8 134.5 6.6 134.6 7.7L135.4 15.2H139L140.4 1L139.8 0.3C136.1 0.1 134 0 130.3 0C122.4 0 114.6 0.3 106.7 0.3C100.4 0.3 94 0.2 87.7 0ZM104.3 -5.2H110.3L125.3 -12.3C128.8 -13.9 130 -14.9 130 -16.7C130 -18.9 128.1 -20.3 125.3 -20.3C122.7 -20.3 120.7 -19.4 118.2 -17.3ZM154.8 68.4C160 68.2 165.1 68.1 170.3 68.1C175.5 68.1 180.7 68.2 185.9 68.4V64.4L182.2 64.1C177.5 63.7 177.4 63.5 177.4 54.6V5.9C178.8 5.3 180.7 5 183.3 5C192.2 5 197.3 9.7 197.3 17.8C197.3 23.1 194.8 27.6 190.7 30C188.2 31.5 185.7 31.9 182 31.9V34.2L203 68.4C206 68.2 209 68.1 212 68.1C215.2 68.1 218.5 68.2 221.7 68.4V64.4C218.1 63.7 216.9 63.2 214.7 59.9L196.6 32.5C202.2 30.2 204.5 28.6 207.2 25.7C210 22.5 211.5 18.9 211.5 14.7C211.5 5 205.1 0 192.5 0C185.9 0 179.2 0.3 172.6 0.3C166.7 0.3 160.7 0.2 154.8 0V3.7L158.5 4C163 4.4 163.3 5 163.3 13.8V54.6C163.3 63.5 163.2 63.7 158.5 64.1L154.8 64.4ZM230.8 0.5C231.6 5.3 231.8 8.8 232.1 16.4H236.1L236.6 9.5C236.9 5.5 240.6 6.2 243.7 6.2H255.4V54.6C255.4 63.5 255.3 63.7 250.6 64.1L246.9 64.4V68.4C252.1 68.2 257.2 68.1 262.4 68.1C267.6 68.1 272.8 68.2 278 68.4V64.4L274.3 64.1C269.6 63.7 269.5 63.5 269.5 54.6V6.2H281.2C286.1 6.2 286.8 5.5 288.3 9.5L288.8 16.4H292.8C293 8.8 293.3 5.3 294.1 0.5L293.5 0C283.2 0.2 272.8 0.3 262.5 0.3C252.1 0.3 241.8 0.2 231.4 0ZM305.7 68.4C310.9 68.2 316 68.1 321.2 68.1C326.4 68.1 331.6 68.2 336.8 68.4V64.4L333.1 64.1C328.4 63.7 328.3 63.5 328.3 54.6V13.8C328.3 4.9 328.4 4.7 333.1 4.3L336.8 4V0C331.6 0.2 326.4 0.3 321.2 0.3C316 0.3 310.9 0.2 305.7 0V4L309.4 4.3C314.1 4.7 314.2 4.9 314.2 13.8V54.6C314.2 63.5 314.1 63.7 309.4 64.1L305.7 64.4ZM351.1 33.4C351.1 55.8 366.5 69.8 391.2 69.8C400.4 69.8 406.3 68.4 413.7 64.3L415.9 59.4L414.7 58.2C408.2 61.6 401.8 63.3 395.2 63.3C377.6 63.3 366.1 50.9 366.1 32C366.1 14.8 375.8 4.2 391.7 4.2C399.3 4.2 404.1 6.1 409.5 11.1L410 19.7H413.9C415 10.1 415.3 8.2 416.2 4.4L415.6 3.3C406.5 -0.3 400.9 -1.4 392.2 -1.4C366.9 -1.4 351.1 12 351.1 33.4ZM428.8 3.7 432.5 4C437 4.4 437.3 5 437.3 13.8V58.6C437.3 62 436.8 63.5 435.3 64.3L432.1 66.1V68.4C436.2 68.2 440.3 68.1 444.4 68.1C451.9 68.1 459.5 68.4 467 68.4C472.5 68.4 475.3 68.4 481 68.1L481.5 67.3L482.6 51.5H478.7L476.4 60.9C476.2 61.7 470.9 62.6 466.3 62.6L451.4 62.3V35.6C454.2 35.4 455.9 35.3 458.1 35.3H464.7C468.5 35.3 470.1 36.4 470.4 39L471 44H475C474.8 40.4 474.7 36.8 474.7 33.2C474.7 29.6 474.8 26.1 475 22.5H471L470.4 28.2C470.2 29.8 468.9 30.3 464.7 30.3H458.1C454.8 30.3 453.4 30.3 451.4 30.1V6.1L465.9 5.8C471.4 5.8 475.6 6.6 475.7 7.7L476.5 15.2H480.1L481.5 1L480.9 0.3C477.2 0.1 475.1 0 471.4 0C463.5 0 455.7 0.3 447.8 0.3C441.5 0.3 435.1 0.2 428.8 0Z"/><g fill="#9A7442"><path d="M133.2 121.7H136.6V111.8C136.6 110.3 136.6 107.6 136.5 105.4C137.2 107.9 138 110.6 138.5 111.8L142.2 121.7H145.1L148.8 111.8C149.2 110.5 150.1 107.8 150.7 105.3C150.7 107.6 150.6 110.4 150.6 111.8V121.7H154.1V102.1H148.8L145.1 112.2C144.7 113.4 144.1 115.8 143.7 117.8C143.2 115.8 142.6 113.4 142.2 112.2L138.5 102.1H133.2ZM165.9 121.7H169.8L171.4 116.9H178.7L180.4 121.7H184.3L177.3 102.1H172.8ZM172.3 114 173.2 111.5C173.7 109.8 174.3 107.6 175 104.8C175.7 107.6 176.3 109.7 176.9 111.5L177.8 114ZM173.8 100.2H176.3L178.9 96.2H175.6ZM196.1 121.7H199.6V114.5H203.3L207.1 121.7H211.1L206.8 113.9C209.1 113 210.4 111.1 210.4 108.4C210.4 104.6 208 102.1 203.4 102.1H196.1ZM199.6 111.6V105.1H202.9C205.6 105.1 206.8 106.3 206.8 108.4C206.8 110.5 205.6 111.6 202.9 111.6ZM222.9 121.7H226.3V111.8C226.3 110.3 226.3 107.6 226.2 105.4C226.9 107.9 227.7 110.6 228.2 111.8L231.9 121.7H234.9L238.5 111.8C238.9 110.5 239.8 107.8 240.4 105.3C240.4 107.6 240.3 110.4 240.3 111.8V121.7H243.8V102.1H238.5L234.8 112.2C234.4 113.4 233.8 115.8 233.4 117.8C232.9 115.8 232.3 113.4 231.9 112.2L228.2 102.1H222.9ZM265.4 122C270.5 122 274.4 118.3 274.4 111.9C274.4 105.6 270.5 101.8 265.4 101.8C260.2 101.8 256.3 105.6 256.3 111.9C256.3 118.3 260.2 122 265.4 122ZM265.4 118.9C262.2 118.9 259.9 116.4 259.9 111.9C259.9 107.4 262.2 105 265.4 105C268.6 105 270.8 107.4 270.8 111.9C270.8 116.4 268.6 118.9 265.4 118.9ZM286.9 121.7H290.4V114.5H294.1L297.9 121.7H301.9L297.6 113.9C299.9 113 301.2 111.1 301.2 108.4C301.2 104.6 298.8 102.1 294.2 102.1H286.9ZM290.4 111.6V105.1H293.7C296.4 105.1 297.6 106.3 297.6 108.4C297.6 110.5 296.4 111.6 293.7 111.6ZM313.7 121.7H326.5V118.8H317.2V113.3H325.8V110.4H317.2V105.1H326.4V102.1H313.7ZM346.1 122C350.8 122 353.5 119.7 353.5 116.2C353.5 112.8 350.7 111.3 347.8 110.6L345.9 110.1C344.3 109.7 342.6 109.1 342.6 107.4C342.6 105.9 343.9 104.8 346.2 104.8C348.3 104.8 349.7 105.8 349.9 107.5H353.3C353.2 104.2 350.4 101.8 346.2 101.8C342.1 101.8 339 104.2 339 107.6C339 110.4 341 112.1 344.3 112.9L346.5 113.5C348.6 114 350 114.7 350 116.2C350 117.9 348.4 119 346.1 119C343.9 119 342.1 118 342 116H338.5C338.6 119.8 341.5 122 346.1 122Z"/><rect x="0.0" y="111.0" width="109.2" height="1.8"/><rect x="376.8" y="111.0" width="109.2" height="1.8"/></g></g></svg>